PathFileType	4	(X/Y/Z)	/home/nbianco/projects/addbio/data/HamnerRunning2013/Processed/subject20//results/MarkerData/run400.trc
DataRate	CameraRate	NumFrames	NumMarkers	Units	OrigDataRate	OrigDataStartFrame	OrigNumFrames
119.99	119.99	10	42	m	119.99	145	232
Frame#	Time	C7			CLAV			LACR			LASI			LCAL			LFAradius			LFAsuperior			LFAulna			LLEL			LMEL			LMT5			LPSI			LTB1			LTB2			LTB3			LTH1			LTH2			LTH3			LTOE			LUA1			LUA2			LUA3			RACR			RASI			RCAL			RFAradius			RFAsuperior			RFAulna			RLEL			RMEL			RMT5			RPSI			RTB1			RTB2			RTB3			RTH1			RTH2			RTH3			RTOE			RUA1			RUA2			RUA3		
		X1	Y1	Z1	X2	Y2	Z2	X3	Y3	Z3	X4	Y4	Z4	X5	Y5	Z5	X6	Y6	Z6	X7	Y7	Z7	X8	Y8	Z8	X9	Y9	Z9	X10	Y10	Z10	X11	Y11	Z11	X12	Y12	Z12	X13	Y13	Z13	X14	Y14	Z14	X15	Y15	Z15	X16	Y16	Z16	X17	Y17	Z17	X18	Y18	Z18	X19	Y19	Z19	X20	Y20	Z20	X21	Y21	Z21	X22	Y22	Z22	X23	Y23	Z23	X24	Y24	Z24	X25	Y25	Z25	X26	Y26	Z26	X27	Y27	Z27	X28	Y28	Z28	X29	Y29	Z29	X30	Y30	Z30	X31	Y31	Z31	X32	Y32	Z32	X33	Y33	Z33	X34	Y34	Z34	X35	Y35	Z35	X36	Y36	Z36	X37	Y37	Z37	X38	Y38	Z38	X39	Y39	Z39	X40	Y40	Z40	X41	Y41	Z41	X42	Y42	Z42

146	1.29167	0.677281	1.51405	-0.398184	0.794081	1.43124	-0.33256	0.757008	1.46531	-0.562335	0.724772	0.991429	-0.509031	0.126688	0.261083	-0.42591	0.905869	1.2718	-0.544054	0.821098	1.2362	-0.691602	0.93236	1.21365	-0.562859	0.761633	1.2145	-0.730071	0.713751	1.15404	-0.681666	0.207033	0.0801138	-0.476566	0.560257	1.04299	-0.422984	0.415137	0.415371	-0.445854	0.313728	0.358835	-0.496425	0.283865	0.275698	-0.425036	0.626313	0.85775	-0.545246	0.625351	0.736068	-0.525899	0.494557	0.64887	-0.513343	0.257835	0.0913235	-0.396682	0.748474	1.39605	-0.625732	0.692632	1.32328	-0.63555	0.757171	1.31207	-0.673399	0.66521	1.48591	-0.212064	0.724953	1.03105	-0.269675	0.620629	0.303725	-0.323546	0.630369	1.13236	-0.091758	0.515342	1.25293	-0.0598393	0.570582	1.09777	-0.0870884	0.45743	1.3145	-0.0692735	0.421332	1.29891	-0.14933	0.759689	0.187029	-0.223379	0.561114	1.04827	-0.335314	0.912225	0.490697	-0.299228	0.84132	0.458627	-0.245999	0.790984	0.356086	-0.312253	0.763742	0.88043	-0.218597	0.877021	0.817226	-0.24501	0.882649	0.67664	-0.238204	0.801811	0.179506	-0.311646	0.595206	1.4245	-0.144113	0.582048	1.35606	-0.127532	0.481357	1.3898	-0.128528
147	1.3	0.678739	1.51749	-0.397471	0.794813	1.43457	-0.330552	0.760328	1.46971	-0.560244	0.726853	0.994668	-0.506804	0.11797	0.28489	-0.427954	0.902669	1.27343	-0.538787	0.822127	1.24034	-0.689393	0.928401	1.21507	-0.557013	0.763435	1.21977	-0.729363	0.71179	1.16058	-0.682722	0.175976	0.0924012	-0.475226	0.562524	1.04781	-0.42408	0.407717	0.420557	-0.448134	0.304011	0.368433	-0.498447	0.270198	0.286944	-0.427183	0.626804	0.86177	-0.545503	0.624706	0.739489	-0.527185	0.493807	0.652648	-0.515101	0.230301	0.102302	-0.397146	0.752118	1.40167	-0.624293	0.694799	1.33076	-0.636827	0.760362	1.3173	-0.672307	0.66426	1.48887	-0.21217	0.726051	1.03552	-0.269654	0.65119	0.272468	-0.324827	0.628325	1.13833	-0.0896567	0.512157	1.25873	-0.0602564	0.568765	1.10346	-0.0850278	0.454345	1.31993	-0.0710725	0.419462	1.3041	-0.151684	0.804557	0.171501	-0.228028	0.563429	1.0537	-0.336185	0.922996	0.489891	-0.30111	0.856285	0.450428	-0.24752	0.815677	0.343664	-0.314797	0.763735	0.883341	-0.218116	0.876894	0.819224	-0.243314	0.880263	0.677119	-0.241469	0.845715	0.170376	-0.317559	0.593779	1.42872	-0.144588	0.580017	1.36022	-0.128092	0.479702	1.39472	-0.130297
148	1.30833	0.680563	1.52042	-0.396757	0.795671	1.43729	-0.32873	0.76361	1.47318	-0.558386	0.728399	0.997754	-0.5049	0.109627	0.309171	-0.430419	0.89895	1.27409	-0.534306	0.822414	1.24366	-0.687795	0.923883	1.21546	-0.552273	0.764407	1.22429	-0.729126	0.709175	1.16659	-0.684119	0.146263	0.108408	-0.472597	0.564505	1.05219	-0.425161	0.401838	0.424587	-0.449751	0.295818	0.377758	-0.499973	0.256865	0.299165	-0.428506	0.628418	0.864942	-0.545696	0.626164	0.742117	-0.52868	0.495514	0.654404	-0.516811	0.20279	0.116539	-0.39608	0.755548	1.40637	-0.623044	0.696635	1.33779	-0.638291	0.763025	1.32186	-0.671897	0.663664	1.49114	-0.212337	0.726675	1.03861	-0.269235	0.682438	0.242263	-0.326485	0.627141	1.14329	-0.0876459	0.509758	1.26342	-0.0605898	0.56777	1.10819	-0.0831571	0.452033	1.32426	-0.0726334	0.418425	1.30818	-0.153683	0.848203	0.158829	-0.232692	0.565621	1.05874	-0.33707	0.931816	0.487692	-0.30262	0.869759	0.441407	-0.248991	0.839155	0.33151	-0.317275	0.762415	0.884087	-0.217321	0.876169	0.819216	-0.241935	0.877018	0.675932	-0.243895	0.88768	0.164179	-0.323235	0.592847	1.43214	-0.14496	0.578547	1.36357	-0.128655	0.478583	1.39866	-0.131727
149	1.31667	0.682725	1.52272	-0.39597	0.796541	1.43927	-0.327111	0.766816	1.47568	-0.556765	0.729577	1.00075	-0.503669	0.101127	0.333713	-0.433535	0.894809	1.27363	-0.530531	0.822002	1.24602	-0.686745	0.918895	1.21465	-0.548688	0.764531	1.22796	-0.729248	0.705879	1.17198	-0.685712	0.119689	0.127738	-0.469001	0.566273	1.05601	-0.426103	0.397276	0.428197	-0.450513	0.28922	0.38713	-0.501005	0.24419	0.312881	-0.429002	0.631025	0.86711	-0.545777	0.629391	0.743888	-0.529841	0.499297	0.654536	-0.518329	0.176379	0.134396	-0.393287	0.75867	1.41003	-0.622001	0.698154	1.34425	-0.639882	0.765167	1.32573	-0.672047	0.663481	1.49267	-0.212485	0.726908	1.04045	-0.268546	0.713881	0.213871	-0.328803	0.626903	1.14725	-0.0855537	0.508198	1.26696	-0.0607367	0.567657	1.11195	-0.0814449	0.450508	1.32742	-0.0738861	0.418197	1.31107	-0.155276	0.889342	0.148766	-0.237137	0.567524	1.06301	-0.337969	0.938668	0.483965	-0.303617	0.881412	0.431603	-0.250332	0.86116	0.319677	-0.319588	0.760103	0.882872	-0.216391	0.87502	0.817253	-0.241152	0.873139	0.673173	-0.24523	0.926837	0.160416	-0.328196	0.592399	1.4347	-0.145188	0.577686	1.36605	-0.129044	0.477989	1.40152	-0.132734
150	1.325	0.685123	1.52432	-0.395113	0.797389	1.44041	-0.325701	0.769904	1.47722	-0.555356	0.73064	1.00366	-0.50327	0.0925244	0.358556	-0.437405	0.890354	1.27193	-0.527397	0.820921	1.24733	-0.686183	0.913476	1.21249	-0.546073	0.763808	1.23076	-0.729644	0.701859	1.17666	-0.687328	0.0974141	0.149705	-0.464985	0.567899	1.05912	-0.426782	0.393922	0.431968	-0.450411	0.284339	0.396777	-0.501618	0.232656	0.328336	-0.428915	0.634362	0.8683	-0.545749	0.633893	0.744859	-0.530208	0.50478	0.653393	-0.519643	0.15234	0.155931	-0.389167	0.761364	1.41266	-0.621149	0.699359	1.34994	-0.641493	0.766744	1.3288	-0.672416	0.663774	1.49342	-0.212502	0.726861	1.0413	-0.267713	0.744833	0.188294	-0.33191	0.627657	1.1502	-0.0832683	0.507541	1.26937	-0.0606145	0.56849	1.11472	-0.0798126	0.449794	1.32935	-0.0747599	0.418707	1.31271	-0.156416	0.926848	0.140913	-0.241156	0.568981	1.06618	-0.33875	0.943645	0.478867	-0.304102	0.89102	0.421362	-0.251538	0.881482	0.308424	-0.321629	0.757253	0.880165	-0.21546	0.873454	0.813462	-0.241034	0.868516	0.668809	-0.245684	0.962462	0.158322	-0.332213	0.592434	1.43634	-0.145231	0.577457	1.36758	-0.129118	0.477935	1.40328	-0.133294
151	1.33333	0.687594	1.52518	-0.394258	0.798225	1.44066	-0.32451	0.772803	1.47782	-0.554128	0.7318	1.00634	-0.503593	0.0845374	0.38387	-0.441935	0.885704	1.26887	-0.524891	0.819174	1.24754	-0.686047	0.907622	1.20891	-0.54407	0.762255	1.23269	-0.730253	0.697129	1.18063	-0.688835	0.0795605	0.173642	-0.461162	0.569453	1.06138	-0.427151	0.3918	0.436123	-0.449712	0.281231	0.406883	-0.501941	0.222828	0.345379	-0.42868	0.638143	0.868648	-0.545675	0.639201	0.745112	-0.52969	0.511575	0.651244	-0.520798	0.131647	0.180632	-0.384588	0.763556	1.41428	-0.620462	0.700251	1.35464	-0.642961	0.767682	1.33094	-0.672681	0.664554	1.49333	-0.212264	0.726643	1.04137	-0.266849	0.77427	0.166496	-0.335729	0.629402	1.15218	-0.0807695	0.507826	1.27065	-0.0601795	0.570318	1.1165	-0.0781623	0.449896	1.33004	-0.0752015	0.419831	1.31305	-0.157049	0.959819	0.134799	-0.244696	0.569955	1.06806	-0.33926	0.946909	0.472884	-0.304265	0.898529	0.411237	-0.252707	0.899837	0.298187	-0.323398	0.754367	0.876527	-0.21456	0.871303	0.807981	-0.241449	0.86286	0.662805	-0.245749	0.993924	0.157061	-0.335368	0.592945	1.43701	-0.145047	0.577848	1.36814	-0.128811	0.478427	1.40389	-0.133425
152	1.34167	0.689949	1.52532	-0.393483	0.799045	1.44003	-0.323564	0.775412	1.47754	-0.553052	0.733139	1.00852	-0.504249	0.0783093	0.409804	-0.446758	0.880969	1.26436	-0.523033	0.816747	1.24663	-0.686242	0.901317	1.2039	-0.542354	0.759904	1.23372	-0.731001	0.691809	1.18388	-0.69019	0.0654386	0.199127	-0.45809	0.570992	1.06258	-0.427256	0.391071	0.440454	-0.44891	0.279889	0.417558	-0.502134	0.21528	0.363481	-0.428742	0.642168	0.868265	-0.545634	0.644975	0.744667	-0.528647	0.519238	0.648322	-0.521825	0.114752	0.207469	-0.380559	0.765246	1.41497	-0.619917	0.700819	1.35813	-0.644106	0.767921	1.33205	-0.672749	0.665755	1.49237	-0.211683	0.72633	1.04076	-0.266057	0.800814	0.148991	-0.34	0.632104	1.15323	-0.0781023	0.509032	1.27081	-0.0594171	0.573159	1.1173	-0.0763951	0.450779	1.32947	-0.0751772	0.421414	1.31201	-0.157113	0.987544	0.129934	-0.247884	0.570579	1.06851	-0.339461	0.948642	0.466652	-0.304412	0.904041	0.401749	-0.253989	0.915725	0.289393	-0.325046	0.751873	0.872384	-0.213629	0.868332	0.800916	-0.24216	0.856039	0.655329	-0.245888	1.02059	0.155966	-0.337936	0.593895	1.4366	-0.144594	0.578811	1.36767	-0.128117	0.479432	1.40332	-0.133156
153	1.35	0.692023	1.52472	-0.392794	0.799809	1.43852	-0.322869	0.777603	1.4764	-0.5521	0.734627	1.0099	-0.50471	0.0750025	0.436379	-0.451252	0.876224	1.25836	-0.521825	0.813633	1.24454	-0.686634	0.894585	1.19752	-0.540845	0.756789	1.23387	-0.731781	0.686077	1.1864	-0.691424	0.054161	0.22601	-0.456229	0.572522	1.06254	-0.427202	0.391964	0.444434	-0.448545	0.280312	0.428776	-0.50237	0.210478	0.381907	-0.429372	0.646373	0.86716	-0.545657	0.650987	0.743485	-0.527689	0.527297	0.644844	-0.522738	0.101702	0.235226	-0.377903	0.766479	1.4148	-0.619503	0.701023	1.3603	-0.644795	0.767433	1.33211	-0.672759	0.667236	1.49047	-0.210747	0.725957	1.0395	-0.265425	0.822967	0.135537	-0.344363	0.63573	1.15335	-0.0753209	0.511082	1.26984	-0.0583133	0.577001	1.11712	-0.0744099	0.452366	1.3276	-0.0746572	0.4233	1.30953	-0.156542	1.00949	0.125859	-0.250894	0.571104	1.06739	-0.339467	0.949035	0.460682	-0.304824	0.907706	0.393196	-0.255492	0.928465	0.282207	-0.326786	0.749994	0.867887	-0.212575	0.864421	0.792431	-0.242894	0.848413	0.646901	-0.246323	1.04183	0.154691	-0.340165	0.595207	1.43498	-0.143828	0.58027	1.36608	-0.127065	0.480864	1.40148	-0.132496
154	1.35833	0.693698	1.52333	-0.392107	0.800474	1.43615	-0.322378	0.779252	1.47444	-0.551255	0.736193	1.01021	-0.504575	0.0754766	0.46344	-0.454687	0.871495	1.2509	-0.521207	0.80984	1.24127	-0.687094	0.887503	1.18985	-0.539769	0.752931	1.2331	-0.732473	0.680061	1.18814	-0.692554	0.0452216	0.254238	-0.455914	0.573963	1.0611	-0.4271	0.394661	0.447505	-0.449005	0.282562	0.440331	-0.502799	0.208696	0.39997	-0.430582	0.650773	0.865254	-0.545688	0.657046	0.741542	-0.527313	0.535392	0.640942	-0.523586	0.0924105	0.262844	-0.37708	0.767261	1.41377	-0.619205	0.700746	1.36115	-0.644979	0.766198	1.33119	-0.672878	0.66883	1.48754	-0.209529	0.725526	1.03753	-0.264994	0.839527	0.125158	-0.348456	0.64026	1.15255	-0.0724484	0.513864	1.26767	-0.0568313	0.581815	1.11595	-0.0721005	0.454552	1.32436	-0.0735956	0.425368	1.30554	-0.155269	1.02543	0.122153	-0.253789	0.571718	1.06462	-0.33943	0.948267	0.455177	-0.30564	0.909611	0.385619	-0.25723	0.937423	0.276401	-0.328741	0.748678	0.86296	-0.211335	0.859762	0.782996	-0.243365	0.840867	0.638313	-0.24702	1.05721	0.153159	-0.342171	0.596781	1.43205	-0.142707	0.582129	1.36327	-0.125673	0.482596	1.39825	-0.131419
155	1.36667	0.694927	1.52107	-0.39129	0.801034	1.43294	-0.321982	0.780266	1.47167	-0.550525	0.737785	1.00932	-0.50378	0.0801742	0.490632	-0.456462	0.86677	1.24204	-0.521073	0.80538	1.23681	-0.687563	0.880183	1.18095	-0.539507	0.748323	1.23142	-0.732977	0.673755	1.18903	-0.693514	0.0387375	0.283623	-0.457311	0.575168	1.05819	-0.42703	0.399185	0.449373	-0.450401	0.286737	0.45189	-0.503496	0.209984	0.417231	-0.432161	0.655357	0.862478	-0.545601	0.662978	0.738863	-0.527632	0.543431	0.6366	-0.524499	0.0868004	0.289597	-0.37819	0.767473	1.41189	-0.618988	0.699797	1.36081	-0.64468	0.764188	1.32937	-0.673126	0.67038	1.48353	-0.208134	0.725043	1.03477	-0.264725	0.849963	0.116586	-0.351981	0.64569	1.15082	-0.069481	0.517286	1.26422	-0.0549134	0.587579	1.11376	-0.0693746	0.457237	1.31964	-0.0719265	0.427573	1.29996	-0.153244	1.03551	0.118314	-0.256522	0.572368	1.06026	-0.339424	0.946463	0.450007	-0.306828	0.909742	0.378861	-0.259103	0.942338	0.271412	-0.330857	0.74764	0.8575	-0.209928	0.854953	0.773534	-0.243332	0.834462	0.630341	-0.247814	1.06674	0.151206	-0.344055	0.598518	1.42773	-0.141205	0.584298	1.35914	-0.123935	0.484511	1.39349	-0.129866
